HIERARCHY
ROOT Hips
{
	OFFSET 0.00000 0.00000 0.00000
	CHANNELS 6 Xposition Yposition Zposition Zrotation Yrotation Xrotation 
	JOINT LHipJoint
	{
		OFFSET 0 0 0
		CHANNELS 3 Zrotation Yrotation Xrotation
		JOINT LeftHip
		{
			OFFSET 1.57358 -1.76629 0.73362
			CHANNELS 3 Zrotation Yrotation Xrotation
			JOINT LeftKnee
			{
				OFFSET 2.40600 -6.61045 0.00000
				CHANNELS 3 Zrotation Yrotation Xrotation
				JOINT LeftAnkle
				{
					OFFSET 2.66168 -7.31291 0.00000
					CHANNELS 3 Zrotation Yrotation Xrotation
					JOINT LeftToe
					{
						OFFSET 0.20870 -0.57341 2.12506
						CHANNELS 3 Zrotation Yrotation Xrotation
						End Site
						{
							OFFSET 0.00000 -0.00000 1.10557
						}
					}
				}
			}
		}
	}
	JOINT RHipJoint
	{
		OFFSET 0 0 0
		CHANNELS 3 Zrotation Yrotation Xrotation
		JOINT RightHip
		{
			OFFSET -1.49299 -1.76629 0.73362
			CHANNELS 3 Zrotation Yrotation Xrotation
			JOINT RightKnee
			{
				OFFSET -2.43663 -6.69460 0.00000
				CHANNELS 3 Zrotation Yrotation Xrotation
				JOINT RightAnkle
				{
					OFFSET -2.62959 -7.22474 0.00000
					CHANNELS 3 Zrotation Yrotation Xrotation
					JOINT RightToe
					{
						OFFSET -0.25784 -0.70841 2.21862
						CHANNELS 3 Zrotation Yrotation Xrotation
						End Site
						{
							OFFSET -0.00000 -0.00000 1.16452
						}
					}
				}
			}
		}
	}
	JOINT lowerback
	{
		OFFSET 0 0 0
		CHANNELS 3 Zrotation Yrotation Xrotation
		JOINT Chest
		{
			OFFSET -0.00034 2.12399 -0.25450
			CHANNELS 3 Zrotation Yrotation Xrotation
			JOINT Chest2
			{
				OFFSET 0.05594 2.14379 -0.03318
				CHANNELS 3 Zrotation Yrotation Xrotation
				JOINT lowerneck
				{
					OFFSET 0 0 0
					CHANNELS 3 Zrotation Yrotation Xrotation
					JOINT Neck
					{
						OFFSET -0.09835 1.62725 0.24211
						CHANNELS 3 Zrotation Yrotation Xrotation
						JOINT Head
						{
							OFFSET 0.10849 1.66041 -0.22648
							CHANNELS 3 Zrotation Yrotation Xrotation
							End Site
							{
								OFFSET 0.04385 1.68267 -0.10541
							}
						}
					}
				}
				JOINT LeftCollar
				{
					OFFSET 0 0 0
					CHANNELS 3 Zrotation Yrotation Xrotation
					JOINT LeftShoulder
					{
						OFFSET 3.29108 0.79398 -0.68179
CHANNELS 3 Zrotation Xrotation Yrotation
						JOINT LeftElbow
						{
OFFSET 0 -5.153100 -0.000000
CHANNELS 3 Zrotation Xrotation Yrotation
							JOINT LeftWrist
							{
OFFSET 0 -3.751380 -0.000000
CHANNELS 3 Zrotation Xrotation Yrotation
								JOINT lhand
								{
									OFFSET 0 0 0
CHANNELS 3 Zrotation Xrotation Yrotation
									JOINT LFingers
									{
OFFSET 0 -0.529170 0.000000
CHANNELS 3 Zrotation Xrotation Yrotation
										End Site
										{
OFFSET 0 -0.426630 0.000000
										}
									}
								}
								JOINT LThumb
								{
OFFSET 0 0.000000 0.000000
CHANNELS 3 Zrotation Xrotation Yrotation
									End Site
									{
OFFSET 0 -0.433150 0.433150
									}
								}
							}
						}
					}
				}
				JOINT RightCollar
				{
					OFFSET 0 0 0
					CHANNELS 3 Zrotation Yrotation Xrotation
					JOINT RightShoulder
					{
						OFFSET -3.07414 1.06285 -0.44338
CHANNELS 3 Zrotation Xrotation Yrotation
						JOINT RightElbow
						{
OFFSET 0 -5.296130 0.000000
CHANNELS 3 Zrotation Xrotation Yrotation
							JOINT RightWrist
							{
OFFSET 0 -3.761440 -0.000000
CHANNELS 3 Zrotation Xrotation Yrotation
								JOINT rhand
								{
									OFFSET 0 0 0
CHANNELS 3 Zrotation Xrotation Yrotation
									JOINT RFingers
									{
OFFSET 0 -0.747320 0.000000
CHANNELS 3 Zrotation Xrotation Yrotation
										End Site
										{
OFFSET 0 -0.602510 0.000000
										}
									}
								}
								JOINT RThumb
								{
OFFSET 0 0.000000 0.000000
CHANNELS 3 Zrotation Xrotation Yrotation
									End Site
									{
OFFSET 0 -0.611710 0.611710
									}
								}
							}
						}
					}
				}
			}
		}
	}
}
MOTION
Frames: 9
Frame Time: 0.008333333333333333
10.087382 17.395626 6.850234 2.419814 -61.946573 0.850890 0.000000 0.000000 0.000000 -12.660059 -6.602807 -22.526612 10.621792 17.744768 61.546951 0.101243 0.852640 -6.362690 0.038976 0.912601 2.510997 0.000000 0.000000 0.000000 33.493539 5.987654 -0.749951 -0.844066 -5.859557 16.377668 -0.352352 -1.907102 -12.073692 -0.475699 -4.417485 12.255237 0.623068 1.862944 5.542781 1.835656 2.585381 -0.618236 1.318704 1.286968 -3.803634 -11.762706 -4.734592 -14.237901 6.742404 -5.795999 25.267098 3.618542 -3.075265 11.075651 0.000000 0.000000 0.000000 -2.958033 3.173058 -7.545819 12.302740 -20.257102 2.206013 17.898591 18.392510 -25.579781 0.000000 0.000000 0.000000 -7.125000 0.000000 0.000000 -12.897500 56.215940 3.589555 0.000000 0.000000 0.000000 -1.002979 -4.105535 22.887700 -17.427250 -27.417362 -4.282331 -13.990330 2.984757 -11.875872 0.000000 0.000000 0.000000 7.125000 0.000000 0.000000 9.201944 17.845610 6.021722
10.026849 17.393897 6.916076 2.633470 -63.027007 0.687532 0.000000 0.000000 0.000000 -12.593129 -6.903848 -22.926771 10.477359 17.669533 61.072103 0.133001 0.816368 -7.222358 0.016443 -0.514781 -1.415774 0.000000 0.000000 0.000000 33.343134 6.516471 0.058344 -0.813801 -5.756657 16.080007 -0.365734 -1.673953 -12.154785 -0.551527 -4.670977 12.989166 0.429643 1.885999 5.654540 1.855137 2.608370 -0.701598 1.439879 1.302492 -3.963063 -11.283939 -4.624876 -14.089179 6.089700 -5.594859 25.095156 3.324290 -3.014975 10.923606 0.000000 0.000000 0.000000 -2.875705 3.269506 -7.729492 12.274796 -20.215476 2.196382 18.530344 18.746231 -25.376506 0.000000 0.000000 0.000000 -7.125000 0.000000 0.000000 -12.143142 56.141980 3.357969 0.000000 0.000000 0.000000 -1.017293 -4.005850 23.216101 -17.599399 -27.640981 -4.361835 -13.335527 3.066906 -12.851960 0.000000 0.000000 0.000000 7.125000 0.000000 0.000000 9.640814 16.900365 6.516383
9.971595 17.387353 6.990003 1.177497 -63.985754 1.854319 0.000000 0.000000 0.000000 -11.703178 -7.047037 -23.282237 10.335431 17.594099 60.603403 0.168059 0.607985 -7.986746 0.072706 -1.713967 -4.716601 0.000000 0.000000 0.000000 33.973908 6.885374 0.858140 -0.803971 -5.722689 15.981748 -0.413377 -1.205203 -12.643942 -0.975416 -6.273509 17.584942 1.173118 1.854164 5.899773 2.054528 2.627544 -0.715144 1.219911 1.295451 -4.092133 -10.914548 -4.775509 -14.176635 5.646655 -5.757163 24.819956 3.070158 -3.097680 10.829660 0.000000 0.000000 0.000000 -2.815120 3.283195 -7.954796 12.192707 -20.093049 2.168026 19.482154 19.074695 -24.704301 0.000000 0.000000 0.000000 -7.125000 0.000000 0.000000 -10.831943 55.662251 2.860513 0.000000 0.000000 0.000000 -1.019206 -3.947161 23.621678 -17.787044 -27.883383 -4.449292 -13.066570 2.987442 -13.655054 0.000000 0.000000 0.000000 7.125000 0.000000 0.000000 9.814285 16.108605 6.807709
9.923993 17.378135 7.064004 -0.897464 -64.769176 3.616766 0.000000 0.000000 0.000000 -10.524610 -7.411092 -23.649811 10.160443 17.498979 60.023044 0.199403 0.208900 -8.510284 0.159948 -2.564434 -7.068961 0.000000 0.000000 0.000000 34.794791 6.910683 1.337596 -0.808999 -5.740204 16.032367 -0.455448 -0.417005 -12.908518 -1.363942 -7.383273 20.859758 2.286485 1.782510 6.086242 2.208899 2.616481 -0.605441 0.754115 1.264191 -4.041347 -10.714167 -4.832832 -14.412969 5.618077 -5.841389 24.626699 3.008142 -3.111591 10.803763 0.000000 0.000000 0.000000 -2.553728 3.029514 -8.402154 12.118790 -19.982508 2.142717 20.170455 19.172414 -23.942501 0.000000 0.000000 0.000000 -7.125000 0.000000 0.000000 -9.780760 55.028591 2.427318 0.000000 0.000000 0.000000 -0.903889 -4.052506 24.149910 -18.080701 -28.260177 -4.587488 -13.277679 2.742979 -13.687236 0.000000 0.000000 0.000000 7.125000 0.000000 0.000000 9.669719 16.061086 6.714432
9.864899 17.376552 7.129520 -0.239221 -65.419165 3.299673 0.000000 0.000000 0.000000 -10.580098 -8.216399 -24.142488 9.914112 17.360667 59.199961 0.231594 -0.331023 -8.975821 0.216108 -2.986451 -8.241486 0.000000 0.000000 0.000000 34.305106 6.925580 1.442593 -0.802613 -5.717922 15.967987 -0.464430 0.254421 -12.794239 -1.434930 -7.573510 21.426052 2.097306 1.755127 5.801224 2.032544 2.550889 -0.586442 0.693090 1.236710 -3.860676 -10.705373 -4.849818 -14.601868 5.763270 -5.878720 24.540110 3.050557 -3.105450 10.815737 0.000000 0.000000 0.000000 -2.275136 2.787555 -8.655071 12.114057 -19.975474 2.141086 20.134057 19.494036 -23.723686 0.000000 0.000000 0.000000 -7.125000 0.000000 0.000000 -9.724226 54.799085 2.357089 0.000000 0.000000 0.000000 -0.847883 -4.030820 24.897341 -18.477402 -28.763384 -4.777207 -13.327511 2.088655 -13.681856 0.000000 0.000000 0.000000 7.125000 0.000000 0.000000 9.635756 16.062930 6.689800
9.799143 17.378006 7.196496 1.477674 -66.057663 2.087646 0.000000 0.000000 0.000000 -11.157580 -9.000681 -24.631860 9.627297 17.193632 58.233446 0.254232 -0.576941 -9.334637 0.240450 -3.155360 -8.711530 0.000000 0.000000 0.000000 33.343533 6.907646 1.427302 -0.802367 -5.717054 15.965554 -0.478226 0.783996 -12.817350 -1.356982 -7.370929 20.820297 1.412620 1.718659 5.413292 1.804093 2.441090 -0.619230 0.861249 1.197309 -3.693864 -10.684528 -4.829614 -14.783249 5.732233 -5.827718 24.568174 3.040592 -3.081303 10.854998 0.000000 0.000000 0.000000 -2.137339 2.635272 -8.678856 12.114339 -19.975878 2.141200 20.089877 20.029914 -23.688804 0.000000 0.000000 0.000000 -7.125000 0.000000 0.000000 -9.755029 54.754896 2.354178 0.000000 0.000000 0.000000 -0.778915 -4.058461 25.614088 -18.792719 -29.159809 -4.929707 -13.643132 1.475440 -13.239977 0.000000 0.000000 0.000000 7.125000 0.000000 0.000000 9.423993 16.486940 6.451929
9.732870 17.375521 7.262864 2.539738 -66.682537 1.347490 0.000000 0.000000 0.000000 -11.453585 -9.600500 -25.059507 9.328590 17.013238 57.217715 0.286321 -1.354755 -9.742883 0.262494 -3.294328 -9.099416 0.000000 0.000000 0.000000 32.721776 6.833076 1.467259 -0.812627 -5.752498 16.067959 -0.498885 1.219560 -12.976285 -1.225845 -7.017904 19.770162 0.978895 1.657970 5.208401 1.669384 2.324121 -0.655130 0.980401 1.148389 -3.626585 -10.644119 -4.780341 -14.879370 5.697320 -5.744190 24.505028 3.031061 -3.040937 10.839738 0.000000 0.000000 0.000000 -1.950130 2.482935 -8.782281 12.068664 -19.907480 2.125675 20.124715 20.223691 -23.661378 0.000000 0.000000 0.000000 -7.125000 0.000000 0.000000 -9.707723 54.733845 2.337669 0.000000 0.000000 0.000000 -0.653402 -4.149862 26.206426 -18.982422 -29.396749 -5.022224 -14.082548 1.199331 -12.713644 0.000000 0.000000 0.000000 7.125000 0.000000 0.000000 9.127092 16.988833 6.142079
9.668033 17.366475 7.327182 2.669099 -67.332095 1.318401 0.000000 0.000000 0.000000 -11.315639 -9.943023 -25.452823 9.026003 16.823172 56.178065 0.314629 -1.986269 -10.099697 0.235924 -3.079623 -8.503951 0.000000 0.000000 0.000000 32.565345 6.684833 1.546998 -0.836861 -5.835221 16.307137 -0.520824 1.615902 -13.171602 -1.026605 -6.419147 18.014230 0.908652 1.582620 5.201349 1.628381 2.218285 -0.671300 0.986117 1.096971 -3.639067 -10.527214 -4.722727 -14.883438 5.692218 -5.678723 24.291352 3.016889 -2.997167 10.750478 0.000000 0.000000 0.000000 -1.662074 2.315711 -8.961384 12.034282 -19.856044 2.113979 19.915865 19.911768 -23.781749 0.000000 0.000000 0.000000 -7.125000 0.000000 0.000000 -9.975213 54.814534 2.425219 0.000000 0.000000 0.000000 -0.518248 -4.201341 26.734391 -19.155302 -29.610725 -5.107573 -14.106360 1.257490 -12.628390 0.000000 0.000000 0.000000 7.125000 0.000000 0.000000 9.111128 17.073896 6.115157
9.605178 17.349007 7.390200 2.713456 -68.040523 1.335308 0.000000 0.000000 0.000000 -11.117201 -10.054207 -25.899920 8.711983 16.618014 55.087342 0.313033 -1.418356 -10.169056 0.113966 -2.168721 -5.972377 0.000000 0.000000 0.000000 32.483180 6.416773 1.513523 -0.872092 -5.954141 16.651396 -0.538828 1.850874 -13.355491 -0.665240 -4.994203 13.928252 0.823716 1.516257 5.247960 1.615075 2.125270 -0.691801 1.026160 1.052419 -3.687870 -10.327898 -4.684217 -14.839075 5.612664 -5.646168 24.038205 2.957185 -2.969825 10.635609 0.000000 0.000000 0.000000 -1.424959 2.201591 -8.940280 12.097762 -19.951138 2.135591 19.113816 19.435136 -24.194886 0.000000 0.000000 0.000000 -7.125000 0.000000 0.000000 -10.978688 55.075431 2.740052 0.000000 0.000000 0.000000 -0.507030 -4.064063 27.328975 -19.459209 -29.984924 -5.258590 -13.332139 1.321820 -13.256736 0.000000 0.000000 0.000000 7.125000 0.000000 0.000000 9.637203 16.491691 6.600634
